<svg xmlns="http://www.w3.org/2000/svg" width="119.531" height="104.5" viewBox="0 0 119.531 104.5">
  <g id="cardiogram" transform="translate(-0.001 -24.859)">
    <path id="Soustraction_6" data-name="Soustraction 6" d="M57.867,104.5h0a3.376,3.376,0,0,1-2.384-.988L28.224,76.4l-1.233-1.227c-15.576-15.492-15.576-15.492-15.868-15.8l-.081-.086,21.5-.022a3.4,3.4,0,0,0,2.907-1.647l2.608-4.339,9.718,15.269a3.316,3.316,0,0,0,2.85,1.572A3.375,3.375,0,0,0,53.7,68.178l4.167-8.8V104.5ZM50.2,59.724l0-.007L40.829,45a3.39,3.39,0,0,0-5.77.075l-4.44,7.4H5.654A33.992,33.992,0,0,1,.007,33.227,33.557,33.557,0,0,1,10.38,9.758,33.757,33.757,0,0,1,33.957,0c8.457,0,16.726,3.323,23.912,9.608l0,33.916L50.2,59.716ZM112.75,47.573l-.009,0a33.761,33.761,0,0,0,2.969-12.456A33.01,33.01,0,0,1,112.75,47.573ZM110.2,15.624A36.247,36.247,0,0,0,100.164,5.587,35.321,35.321,0,0,1,110.21,15.619ZM65.544,4.251l0-.009A34.652,34.652,0,0,1,78.6.163,35.149,35.149,0,0,0,65.544,4.251Z" transform="translate(0.001 24.859)" fill="#cfe6ff"/>
    <path id="Soustraction_5" data-name="Soustraction 5" d="M0,104.5H0V59.371l9.244-19.51,9.481,17.614a3.391,3.391,0,0,0,2.991,1.787h25.1l-.071.106c-.288.308-.288.308-16.057,15.994l-28.3,28.147A3.376,3.376,0,0,1,0,104.5Zm52.208-52.02H23.74l-11.7-21.742a3.4,3.4,0,0,0-6.056.158L0,43.517V9.6C7.186,3.32,15.5,0,24.031,0A33.553,33.553,0,0,1,47.809,10.1a33.587,33.587,0,0,1,9.837,19.928,33.97,33.97,0,0,1-5.431,22.446Z" transform="translate(61.664 24.862)" fill="#ceff7a"/>
  </g>
</svg>
