<svg xmlns="http://www.w3.org/2000/svg" width="139.63" height="139.631" viewBox="0 0 139.63 139.631">
  <g id="sex" transform="translate(-1.424 -1.422)">
    <path id="Soustraction_4" data-name="Soustraction 4" d="M40.918,105.117A40.866,40.866,0,1,1,64.6,30.936L81.912,13.622h-4.2A6.811,6.811,0,1,1,77.716,0H98.244a6.819,6.819,0,0,1,6.811,6.811V27.339a6.811,6.811,0,1,1-13.622,0V23.366l-17.205,17.2a40.871,40.871,0,0,1-33.31,64.55ZM40.861,36.38A27.813,27.813,0,1,0,68.675,64.194,27.845,27.845,0,0,0,40.861,36.38Z" transform="translate(35.999 25.628)" fill="#cfe6ff"/>
    <path id="Soustraction_2" data-name="Soustraction 2" d="M40.863,139.631a40.869,40.869,0,0,1-6.808-81.166V22.706H27.169a5.677,5.677,0,0,1,0-11.353h6.887V6.811a6.811,6.811,0,1,1,13.622,0v4.542h6.735a5.677,5.677,0,0,1,0,11.353H47.677V58.465a40.869,40.869,0,0,1-6.246,81.162C41.241,139.63,41.053,139.631,40.863,139.631Zm-.073-68.683A27.813,27.813,0,1,0,68.6,98.761,27.845,27.845,0,0,0,40.791,70.948Z" transform="translate(1.424 1.422)" fill="#ceff7a"/>
    <path id="Tracé_76" data-name="Tracé 76" d="M144.249,275.309a40.908,40.908,0,0,0,7.028,5.483,27.95,27.95,0,0,0,10.145-9.4,27.818,27.818,0,0,1-1.942-49.909c-2.16-1.327-3.351-4.073-5.752-4.986-2.446-.93-6.107-.017-8.752-.464q-.82.76-1.609,1.571A40.745,40.745,0,0,0,144.249,275.309Z" transform="translate(-95.829 -156.139)" fill="#cfe6ff"/>
  </g>
</svg>
