<svg id="Composant_29_2" data-name="Composant 29 – 2" xmlns="http://www.w3.org/2000/svg" width="45" height="45" viewBox="0 0 45 45">
  <circle id="Ellipse_16" data-name="Ellipse 16" cx="22.5" cy="22.5" r="22.5" fill="#fff"/>
  <g id="sex" transform="translate(8.999 9)">
    <path id="Soustraction_4" data-name="Soustraction 4" d="M7.212,18.528A7.2,7.2,0,1,1,11.386,5.453L14.438,2.4H13.7a1.2,1.2,0,0,1,0-2.4h3.618a1.2,1.2,0,0,1,1.2,1.2V4.819a1.2,1.2,0,1,1-2.4,0v-.7L13.084,7.15A7.2,7.2,0,0,1,7.212,18.528ZM7.2,6.413a4.9,4.9,0,1,0,4.9,4.9A4.908,4.908,0,0,0,7.2,6.413Z" transform="translate(7.518 5.689)" fill="#38744c"/>
    <path id="Soustraction_2" data-name="Soustraction 2" d="M7.2,24.612A7.2,7.2,0,0,1,6,10.305V4H4.789a1,1,0,0,1,0-2H6V1.2a1.2,1.2,0,0,1,2.4,0V2H9.591a1,1,0,1,1,0,2H8.4v6.3A7.2,7.2,0,0,1,7.3,24.611ZM7.19,12.506a4.9,4.9,0,1,0,4.9,4.9A4.908,4.908,0,0,0,7.19,12.506Z" transform="translate(1.424 1.422)" fill="#55a657"/>
    <path id="Tracé_76" data-name="Tracé 76" d="M134.016,226.482a7.211,7.211,0,0,0,1.239.966,4.926,4.926,0,0,0,1.788-1.657,4.9,4.9,0,0,1-.342-8.8c-.381-.234-.591-.718-1.014-.879a9.182,9.182,0,0,0-1.543-.082q-.144.134-.284.277A7.182,7.182,0,0,0,134.016,226.482Z" transform="translate(-124.309 -204.305)" fill="#38744c"/>
  </g>
</svg>
