<svg id="Composant_28_2" data-name="Composant 28 – 2" xmlns="http://www.w3.org/2000/svg" width="45" height="45" viewBox="0 0 45 45">
  <g id="Groupe_45" data-name="Groupe 45">
    <circle id="Ellipse_11" data-name="Ellipse 11" cx="22.5" cy="22.5" r="22.5" fill="#fff"/>
    <g id="cardiogram" transform="translate(10.999 -11.859)">
      <path id="Soustraction_6" data-name="Soustraction 6" d="M11.86,21.416h0a.692.692,0,0,1-.489-.2L5.785,15.658l-.253-.251C2.34,12.232,2.34,12.232,2.28,12.168l-.017-.018,4.406,0a.7.7,0,0,0,.6-.337l.535-.889,1.992,3.129a.68.68,0,0,0,.584.322.692.692,0,0,0,.631-.4l.854-1.8v9.246ZM10.288,12.24v0L8.368,9.223a.695.695,0,0,0-1.183.015l-.91,1.516H1.159A6.967,6.967,0,0,1,0,6.809,6.877,6.877,0,0,1,2.128,2,6.918,6.918,0,0,1,6.96,0a7.429,7.429,0,0,1,4.9,1.969V8.92l-1.572,3.318ZM23.108,9.75h0A6.919,6.919,0,0,0,23.715,7.2,6.765,6.765,0,0,1,23.108,9.75ZM22.586,3.2a7.429,7.429,0,0,0-2.057-2.057A7.239,7.239,0,0,1,22.588,3.2ZM13.434.871v0A7.1,7.1,0,0,1,16.109.033,7.2,7.2,0,0,0,13.434.871Z" transform="translate(0 24.86)" fill="#55a657"/>
      <path id="Soustraction_5" data-name="Soustraction 5" d="M0,21.416H0V12.168l1.895-4,1.943,3.61a.7.7,0,0,0,.613.366H9.595l-.014.022c-.059.063-.059.063-3.291,3.278l-5.8,5.769A.692.692,0,0,1,0,21.416ZM10.7,10.755H4.865L2.467,6.3a.7.7,0,0,0-1.241.032L0,8.919V1.968A7.458,7.458,0,0,1,4.925,0,6.877,6.877,0,0,1,9.8,2.07a6.884,6.884,0,0,1,2.016,4.084,6.962,6.962,0,0,1-1.113,4.6Z" transform="translate(11.861 24.86)" fill="#38744c"/>
    </g>
  </g>
</svg>
