<svg xmlns="http://www.w3.org/2000/svg" width="24.866" height="19.337" viewBox="0 0 24.866 19.337">
  <path id="Icon_awesome-home" data-name="Icon awesome-home" d="M12.1,7.27,4.144,13.825V20.9a.691.691,0,0,0,.691.691l4.837-.013a.691.691,0,0,0,.687-.691V16.756a.691.691,0,0,1,.691-.691h2.763a.691.691,0,0,1,.691.691v4.129a.691.691,0,0,0,.691.693l4.836.013a.691.691,0,0,0,.691-.691V13.82L12.763,7.27A.526.526,0,0,0,12.1,7.27Zm12.572,4.455L21.065,8.751V2.772a.518.518,0,0,0-.518-.518H18.13a.518.518,0,0,0-.518.518V5.906l-3.865-3.18a2.072,2.072,0,0,0-2.633,0l-10.927,9a.518.518,0,0,0-.069.73l1.1,1.338a.518.518,0,0,0,.73.07L12.1,5.5a.526.526,0,0,1,.66,0l10.154,8.363a.518.518,0,0,0,.73-.069l1.1-1.338a.518.518,0,0,0-.073-.731Z" transform="translate(0.001 -2.254)" fill="#fafafa"/>
</svg>
