<svg id="Composant_31_2" data-name="Composant 31 – 2" xmlns="http://www.w3.org/2000/svg" width="45" height="45" viewBox="0 0 45 45">
  <circle id="Ellipse_13" data-name="Ellipse 13" cx="22.5" cy="22.5" r="22.5" fill="#fff"/>
  <g id="eggs" transform="translate(10.587 -35.237)">
    <path id="Tracé_79" data-name="Tracé 79" d="M65.762,50.781a.672.672,0,0,0-.243-.517c-1.964-1.626-4.906-2.9-7.138-1.607a4.5,4.5,0,0,0-1.95,2.688l2.9,1.44L58.168,54.2l-2.082-.158a11.423,11.423,0,0,0,.944,4.24.673.673,0,0,0,.615.4H65.09a.671.671,0,0,0,.672-.672V50.781Z" transform="translate(-53.575)" fill="#55a657"/>
    <path id="Tracé_80" data-name="Tracé 80" d="M57.474,113.945a2.037,2.037,0,0,1-1.678-.882,8.394,8.394,0,0,1,.265-2.431l.075-.269.244-.136a.6.6,0,0,1,.078-.052,2.019,2.019,0,0,1,2.012,3.5h0A1.973,1.973,0,0,1,57.474,113.945Z" transform="translate(-53.296 -59.026)" fill="#38744c"/>
    <path id="Tracé_81" data-name="Tracé 81" d="M181.749,54.375a11.4,11.4,0,0,1-.954,4.231.679.679,0,0,1-.618.4H169.7a.666.666,0,0,1-.631-.443,5.852,5.852,0,0,1,.685-5.037,9.73,9.73,0,0,1,1.106-1.491l1.813,1.3.282.2,1.5-.739L172.8,50.211c2.351-1.746,4.907-2.23,6.64-1.222a4.464,4.464,0,0,1,1.948,2.646l-2.955,1.558,1.236,1.357Z" transform="translate(-161.216 -0.331)" fill="#38744c"/>
    <path id="Tracé_83" data-name="Tracé 83" d="M378.459,113.872a2.01,2.01,0,0,1-1.73-3.029,1.967,1.967,0,0,1,1.213-.937,2.014,2.014,0,0,1,1.523.193l.3.154a7.872,7.872,0,0,1,.359,2.735A2.031,2.031,0,0,1,378.459,113.872Zm1-1.119h0Z" transform="translate(-359.596 -58.95)" fill="#1b4429"/>
    <g id="Groupe_19" data-name="Groupe 19" transform="translate(9.635 49.862)">
      <path id="Tracé_84" data-name="Tracé 84" d="M258.046,189.653a2.723,2.723,0,0,0-3.712.98,2.34,2.34,0,0,0-.269.658,2.632,2.632,0,0,0,0,1.37,3.5,3.5,0,0,0,.175.484.672.672,0,0,0,.6.376h3.671a.657.657,0,0,0,.6-.376,2.607,2.607,0,0,0,.269-1.169A2.682,2.682,0,0,0,258.046,189.653Z" transform="translate(-252.239 -184.706)" fill="#1b4429"/>
      <path id="Tracé_85" data-name="Tracé 85" d="M218.236,87.239a1.8,1.8,0,0,0-1.088-.269.733.733,0,0,0-.121.094A11.023,11.023,0,0,0,215.2,88.81l.013.269a2.014,2.014,0,0,0,1.007,1.639,1.912,1.912,0,0,0,.806.269,1.017,1.017,0,0,0,.2.013,1.774,1.774,0,0,0,.524-.081,1.959,1.959,0,0,0,1.222-.94h.013A2.022,2.022,0,0,0,218.236,87.239Z" transform="translate(-215.2 -86.965)" fill="#1b4429"/>
    </g>
    <path id="Tracé_88" data-name="Tracé 88" d="M22.883,256.563l-1.048.672.806.672a7.4,7.4,0,0,1-7.105,5.373H7.387a7.4,7.4,0,0,1-7.105-5.373l.7-.672-.94-.672a5.46,5.46,0,0,1-.04-.672,2.012,2.012,0,0,1,2.015-2.015H20.909a2.012,2.012,0,0,1,2.015,2.015A5.459,5.459,0,0,1,22.883,256.563Z" transform="translate(0 -196.542)" fill="#5b975c"/>
    <path id="Tracé_89" data-name="Tracé 89" d="M267.421,256.563l-1.048.672.806.672a7.4,7.4,0,0,1-7.105,5.373H256v-9.4h9.447a2.012,2.012,0,0,1,2.015,2.015A5.464,5.464,0,0,1,267.421,256.563Z" transform="translate(-244.538 -196.542)" fill="#418457"/>
    <g id="Groupe_21" data-name="Groupe 21" transform="translate(0.04 60.021)">
      <path id="Tracé_90" data-name="Tracé 90" d="M4.89,314.549a.665.665,0,0,1-.672.672H1.143A6.4,6.4,0,0,1,.9,313.877H4.219A.665.665,0,0,1,4.89,314.549Z" transform="translate(-0.901 -313.877)" fill="#38744c"/>
      <path id="Tracé_91" data-name="Tracé 91" d="M215.03,314.549a.665.665,0,0,1-.672.672h-2.686a.672.672,0,1,1,0-1.343h2.686A.665.665,0,0,1,215.03,314.549Z" transform="translate(-201.593 -313.877)" fill="#38744c"/>
    </g>
    <path id="Tracé_92" data-name="Tracé 92" d="M425.989,313.877a6.4,6.4,0,0,1-.242,1.343h-3.076a.672.672,0,0,1,0-1.343Z" transform="translate(-403.106 -253.856)" fill="#55a657"/>
    <path id="Tracé_93" data-name="Tracé 93" d="M123.4,375.22h-2.731a.672.672,0,1,1,0-1.343H123.4a.672.672,0,1,1,0,1.343Z" transform="translate(-114.627 -311.169)" fill="#38744c"/>
    <g id="Groupe_22" data-name="Groupe 22" transform="translate(11.462 60.021)">
      <path id="Tracé_94" data-name="Tracé 94" d="M304.4,375.22h-2.731a.672.672,0,0,1,0-1.343H304.4a.672.672,0,0,1,0,1.343Z" transform="translate(-298.985 -371.191)" fill="#55a657"/>
      <path id="Tracé_95" data-name="Tracé 95" d="M258.015,314.549a.665.665,0,0,1-.672.672H256v-1.343h1.343A.665.665,0,0,1,258.015,314.549Z" transform="translate(-256 -313.877)" fill="#55a657"/>
    </g>
  </g>
</svg>
