<svg xmlns="http://www.w3.org/2000/svg" width="95.238" height="126.654" viewBox="0 0 95.238 126.654">
  <g id="eggs_2_" data-name="eggs (2)" transform="translate(-63.5 0)">
    <path id="Tracé_198" data-name="Tracé 198" d="M82.613,156.862a43.452,43.452,0,0,1-6.994-8.534c4.346-3.049,5.808-10.143,3.26-17.327-2.217-6.24-6.8-10.649-11.582-11.372q-.086-1.847-.087-3.74c0-19.456,6.929-39.791,18.083-53.069a1.855,1.855,0,0,0-2.841-2.387C70.762,74.35,63.5,95.6,63.5,115.889a69.537,69.537,0,0,0,4.45,25.386,49.607,49.607,0,0,0,12.119,18.288,1.855,1.855,0,1,0,2.543-2.7ZM67.577,123.493c3.105.937,6.239,4.343,7.805,8.75,1.854,5.226,1.066,10.615-1.632,12.837a51.376,51.376,0,0,1-2.344-5.155A61.737,61.737,0,0,1,67.577,123.493Z" transform="translate(0 -44.985)" fill="#ceff7a"/>
    <path id="Tracé_199" data-name="Tracé 199" d="M223.9,197.74a1.855,1.855,0,0,0-3.614.841,88.71,88.71,0,0,1,2.347,20.067c0,15.72-4.471,29.012-12.93,38.44a41.018,41.018,0,0,1-30.979,13.6,41.737,41.737,0,0,1-22.544-6.417,1.855,1.855,0,1,0-2,3.127,45.44,45.44,0,0,0,24.542,7,44.684,44.684,0,0,0,33.741-14.833c9.079-10.119,13.878-24.268,13.878-40.918A92.422,92.422,0,0,0,223.9,197.74Z" transform="translate(-67.605 -147.744)" fill="#ceff7a"/>
    <path id="Tracé_200" data-name="Tracé 200" d="M163.715,12.354c6.406-5.655,13.5-8.644,20.508-8.644,8.105,0,16.172,3.924,23.33,11.348,6.783,7.035,12.52,17.087,16.156,28.3a1.855,1.855,0,0,0,3.53-1.144c-3.861-11.912-9.744-22.194-17.014-29.734C202.35,4.317,193.36,0,184.223,0c-7.929,0-15.869,3.31-22.964,9.573a1.855,1.855,0,1,0,2.456,2.782Z" transform="translate(-73.104)" fill="#ceff7a"/>
    <path id="Tracé_201" data-name="Tracé 201" d="M125.853,144.324a22.627,22.627,0,0,0-5.886,11.665c-1.125,5.789-.2,11.606,2.478,15.562,3.987,5.891,11.233,6.68,16.965.958a22.625,22.625,0,0,0,5.886-11.665c1.125-5.789.2-11.606-2.478-15.562C138.908,139.505,131.686,138.5,125.853,144.324Zm15.8,15.812c-2.04,10.495-11.137,16.721-16.136,9.335-2.136-3.157-2.849-7.932-1.908-12.774,2.018-10.381,11.078-16.81,16.136-9.335C141.881,150.519,142.595,155.294,141.653,160.136Z" transform="translate(-42.145 -105.686)" fill="#ceff7a"/>
    <path id="Tracé_202" data-name="Tracé 202" d="M274.732,79.183c5.394-2.448,6.195-9.84,3.5-15.672-2.62-5.67-8.724-10.1-14.224-7.6-5.394,2.449-6.195,9.84-3.5,15.672C263.127,77.255,269.232,81.681,274.732,79.183Zm-10.856-9.155c-1.765-3.82-1.706-9.206,1.666-10.737,3.425-1.555,7.585,2.017,9.322,5.776,1.765,3.82,1.706,9.206-1.666,10.737C270.217,77.158,265.948,74.513,263.876,70.029Z" transform="translate(-147.145 -41.545)" fill="#ceff7a"/>
    <path id="Tracé_203" data-name="Tracé 203" d="M307.781,308.524a20.54,20.54,0,0,0-2.691-15.352c-7.6-11.224-23.259-5.394-26.215,9.812a20.54,20.54,0,0,0,2.691,15.352c7.56,11.173,23.247,5.457,26.215-9.812Zm-25.264-4.831c2.323-11.949,13.78-16.893,19.5-8.441a16.823,16.823,0,0,1,2.122,12.564c-2.323,11.949-13.78,16.893-19.5,8.441A16.824,16.824,0,0,1,282.517,303.693Z" transform="translate(-161.769 -216.247)" fill="#ceff7a"/>
  </g>
</svg>
