<svg xmlns="http://www.w3.org/2000/svg" width="18" height="18" viewBox="0 0 18 18">
  <g id="Icon_ionic-ios-options" data-name="Icon ionic-ios-options" transform="translate(-3.375 -5.625)">
    <path id="Tracé_5" data-name="Tracé 5" d="M14.249,26.438c.268-.991.878-1.687,1.588-1.687s1.32.7,1.588,1.688h3.258c.381,0,.692.506.692,1.125h0c0,.619-.312,1.125-.692,1.125H17.425c-.268.991-.878,1.688-1.588,1.688s-1.32-.7-1.588-1.687H4.067c-.381,0-.692-.506-.692-1.125h0c0-.619.312-1.125.692-1.125Z" transform="translate(0 -6.75)" fill="#55a657"/>
    <path id="Tracé_6" data-name="Tracé 6" d="M7.325,16.875c.268-.991.878-1.687,1.588-1.687s1.32.7,1.588,1.688H20.683c.381,0,.692.506.692,1.125h0c0,.619-.312,1.125-.692,1.125H10.5c-.268.991-.878,1.688-1.588,1.688s-1.32-.7-1.588-1.687H4.067c-.381,0-.692-.506-.692-1.125h0c0-.619.312-1.125.692-1.125Z" transform="translate(0 -3.375)" fill="#55a657"/>
    <path id="Tracé_7" data-name="Tracé 7" d="M14.249,7.313c.268-.991.878-1.687,1.588-1.687s1.32.7,1.588,1.688h3.258c.381,0,.692.506.692,1.125h0c0,.619-.312,1.125-.692,1.125H17.425c-.268.991-.878,1.688-1.588,1.688s-1.32-.7-1.588-1.687H4.067c-.381,0-.692-.506-.692-1.125h0c0-.619.312-1.125.692-1.125Z" fill="#55a657"/>
  </g>
</svg>
