<svg xmlns="http://www.w3.org/2000/svg" width="97.5" height="97.504" viewBox="0 0 97.5 97.504">
  <g id="Groupe_43" data-name="Groupe 43" transform="translate(0)">
    <path id="Tracé_209" data-name="Tracé 209" d="M359.5,160.75a48.584,48.584,0,0,1-3.926,19.2l-.162.372a48.831,48.831,0,0,1-53.122,28.45q-.439-.078-.877-.162a48.315,48.315,0,0,1-8.818-2.6q-.694-.279-1.379-.578c-.312-.136-.623-.275-.932-.42A48.755,48.755,0,1,1,359.5,160.75Z" transform="translate(-262 -112)" fill="#c2dfc3"/>
    <path id="Tracé_210" data-name="Tracé 210" d="M418.581,393.914q-.439-.078-.877-.162a200.461,200.461,0,0,0-3.072-28.744,106.642,106.642,0,0,0-5.257-19.121,59.507,59.507,0,0,0-2.75-6.035,31.3,31.3,0,0,0-8.735-10.8l.513-.7a30.163,30.163,0,0,1,7.82,8.954q1.041,1.726,2,3.684,1.028,2.094,1.96,4.447.595,1.5,1.149,3.1a112.446,112.446,0,0,1,4.1,15.862q.374,1.969.713,4.034A204.536,204.536,0,0,1,418.581,393.914Z" transform="translate(-378.29 -297.146)" opacity="0.2"/>
    <path id="Tracé_211" data-name="Tracé 211" d="M410.648,618.508c-.312-.136-.623-.276-.932-.42a70.812,70.812,0,0,0-1.868-11.191,36.723,36.723,0,0,0-1.7-5.077,15.234,15.234,0,0,0-4.585-6.421l.513-.7a15.938,15.938,0,0,1,4.794,6.568,45.053,45.053,0,0,1,2.872,10.121C410.188,613.94,410.471,616.405,410.648,618.508Z" transform="translate(-381.431 -525.08)" opacity="0.2"/>
    <circle id="Ellipse_36" data-name="Ellipse 36" cx="4.34" cy="4.34" r="4.34" transform="translate(10.41 23.206)" opacity="0.2"/>
    <circle id="Ellipse_37" data-name="Ellipse 37" cx="4.34" cy="4.34" r="4.34" transform="translate(11.807 60.563)" opacity="0.2"/>
    <path id="Tracé_212" data-name="Tracé 212" d="M482.295,300.664a19.276,19.276,0,0,0,1.111,9.893,17.567,17.567,0,0,0,3.333-18.8A19.278,19.278,0,0,0,482.295,300.664Z" transform="translate(-450.317 -265.829)" opacity="0.2"/>
    <path id="Tracé_213" data-name="Tracé 213" d="M336.222,401.734a19.372,19.372,0,0,0,9.928.649,17.675,17.675,0,0,0-17.933-6.558A19.372,19.372,0,0,0,336.222,401.734Z" transform="translate(-318.666 -354.574)" opacity="0.2"/>
    <path id="Tracé_214" data-name="Tracé 214" d="M344.634,642.105a13.511,13.511,0,0,0,6.964.441,12.313,12.313,0,0,0-12.57-4.6A13.511,13.511,0,0,0,344.634,642.105Z" transform="translate(-327.918 -561.865)" opacity="0.2"/>
    <circle id="Ellipse_38" data-name="Ellipse 38" cx="19.005" cy="19.005" r="19.005" transform="translate(29.645 21.535)" fill="#d0cde1"/>
    <path id="Tracé_215" data-name="Tracé 215" d="M547.833,458.726s2.376,11.284,2.376,12.472,11.284,6.533,11.284,6.533l10.1-1.782,3.563-10.691s-5.939-8.909-5.939-12.472Z" transform="translate(-506.607 -403.635)" fill="#d0cde1"/>
    <path id="Tracé_216" data-name="Tracé 216" d="M462.751,526.773l-.162.372a48.831,48.831,0,0,1-53.122,28.45q-.439-.078-.877-.162a48.309,48.309,0,0,1-8.818-2.6q-.695-.279-1.379-.578c-.312-.136-.623-.276-.932-.42a48.689,48.689,0,0,1-7.969-4.656l-2.253-6.535,1.266-.966,2.6-1.989,2.779-2.122.723-.552,10.905-8.325.8-.614,5.668-4.327h0s6.13,9.988,15.039,7.018a12.285,12.285,0,0,0,8.714-11.485Z" transform="translate(-369.177 -458.826)" fill="#2f2e41"/>
    <path id="Tracé_217" data-name="Tracé 217" d="M458.514,224.563s6.034-13.074,17.6-10.057,18.1,7.543,18.605,12.068a64.573,64.573,0,0,1-.251,11.314s-1.257-9.3-9.3-7.291-20.616.5-20.616.5l-2.011,18.1s-2.263-3.268-4.777-1.257S450.469,228.586,458.514,224.563Z" transform="translate(-426.346 -199.335)" fill="#2f2e41"/>
    <path id="Tracé_218" data-name="Tracé 218" d="M385.464,691.459q-.694-.279-1.379-.578c-.312-.136-.623-.276-.932-.42a48.871,48.871,0,0,1-12.633-8.466,17.093,17.093,0,0,1,2.412-2.724h8.909l1.336,4.491Z" transform="translate(-354.868 -597.452)" fill="#2f2e41"/>
    <path id="Tracé_219" data-name="Tracé 219" d="M853.444,576.32l7.643,1.35a48.743,48.743,0,0,1-8.187,12.774Z" transform="translate(-767.674 -509.351)" fill="#2f2e41"/>
  </g>
</svg>
