<svg xmlns="http://www.w3.org/2000/svg" width="259.725" height="259.725" viewBox="0 0 259.725 259.725">
  <g id="Soustraction_8" data-name="Soustraction 8" transform="translate(60.813) rotate(17)" fill="none">
    <path d="M104,208a103.341,103.341,0,0,1-40.482-8.173c-3.164-1.338-6.3-2.857-9.337-4.515a39.493,39.493,0,0,0,3.077-15.357A39.764,39.764,0,0,0,7.016,141.631,103.848,103.848,0,0,1,17.762,45.852,104.277,104.277,0,0,1,63.518,8.173a104.167,104.167,0,0,1,99.626,10.27A31.573,31.573,0,0,0,192.81,60.764a31.83,31.83,0,0,0,5.577-.492,103.488,103.488,0,0,1,7.12,20.992A104.689,104.689,0,0,1,208,104a103.511,103.511,0,0,1-17.762,58.148,104.322,104.322,0,0,1-45.756,37.679A103.339,103.339,0,0,1,104,208Z" stroke="none"/>
    <path d="M 104.0005035400391 204 C 117.5029678344727 204 130.5985870361328 201.3564758300781 142.9234924316406 196.1428833007813 C 148.8521728515625 193.6348266601563 154.5661468505859 190.5330657958984 159.9077606201172 186.9231109619141 C 165.2025604248047 183.3471832275391 170.1827697753906 179.2382659912109 174.7101745605469 174.7103881835938 C 179.2381134033203 170.1824951171875 183.3471832275391 165.2024688720703 186.9231719970703 159.9087066650391 C 190.5375823974609 154.5579986572266 193.6394958496094 148.8434753417969 196.1427917480469 142.923828125 C 201.3564758300781 130.5954742431641 204 117.4994430541992 204 103.9994735717773 C 204 96.62799835205078 203.1934967041016 89.27143859863281 201.6031188964844 82.13523864746094 C 200.2660369873047 76.14322662353516 198.3682556152344 70.26658630371094 195.9506683349609 64.62593841552734 C 194.9073486328125 64.71744537353516 193.8580017089844 64.76352691650391 192.81005859375 64.76352691650391 C 173.2067413330078 64.76352691650391 157.25830078125 48.81561660766602 157.25830078125 29.21299934387207 C 157.25830078125 26.11321830749512 157.6540374755859 23.0601978302002 158.4373626708984 20.10048866271973 C 142.2296752929688 9.558011054992676 123.4718170166016 4 104.0005035400391 4 C 90.49741363525391 4 77.40144348144531 6.643529415130615 65.07640838623047 11.85714721679688 C 59.15276336669922 14.36294078826904 53.43796920776367 17.46455955505371 48.09129333496094 21.07552909851074 C 42.79529571533203 24.65344047546387 37.81491088867188 28.76285362243652 33.28832244873047 33.28973388671875 C 28.76055908203125 37.81717681884766 24.6521167755127 42.79700088500977 21.0762939453125 48.09206008911133 C 17.46711730957031 53.43238067626953 14.36485290527344 59.14691162109375 11.85594081878662 65.07635498046875 C 6.643117427825928 77.40141296386719 4 90.49703216552734 4 103.9994735717773 C 4 115.3313064575195 5.86653995513916 126.3994827270508 9.552550315856934 136.9515838623047 C 12.17301368713379 136.4687042236328 14.84267902374268 136.2250061035156 17.52735328674316 136.2250061035156 C 41.64041137695313 136.2250061035156 61.2578239440918 155.8423004150391 61.2578239440918 179.9552307128906 C 61.2578239440918 184.5684204101563 60.55055999755859 189.0765533447266 59.15144348144531 193.4026336669922 C 61.10230255126953 194.3834075927734 63.08503341674805 195.3005676269531 65.07640838623047 196.1428527832031 C 77.40144348144531 201.3564758300781 90.49741363525391 204 104.0005035400391 204 M 104.0005035400391 208 C 89.95896911621094 208 76.33888244628906 205.2501525878906 63.51805877685547 199.8267974853516 C 60.35449981689453 198.4887084960938 57.21338272094727 196.9696807861328 54.18114852905273 195.3119354248047 C 56.22217559814453 190.4454956054688 57.2578239440918 185.2792663574219 57.2578239440918 179.9552307128906 C 57.2578239440918 158.0479125976563 39.43505859375 140.2250061035156 17.52735328674316 140.2250061035156 C 13.96044158935547 140.2250061035156 10.42382335662842 140.6978759765625 7.015617847442627 141.6304931640625 C 2.359853029251099 129.6506195068359 0 116.9899139404297 0 103.9994735717773 C 0 89.95855712890625 2.749529361724854 76.33870697021484 8.171882629394531 63.51820755004883 C 10.78076457977295 57.35250091552734 14.0068531036377 51.4088249206543 17.76220512390137 45.85226440429688 C 21.47949981689453 40.34770584106445 25.7514705657959 35.16941070556641 30.45997047424316 30.46120643615723 C 35.16650009155273 25.7543830871582 40.34520721435547 21.48141098022461 45.85205841064453 17.76103019714355 C 51.41259002685547 14.00564670562744 57.35597229003906 10.77985286712646 63.51805877685547 8.173206329345703 C 76.33888244628906 2.749852895736694 89.95896911621094 0 104.0005035400391 0 C 125.2700271606445 0 145.7221832275391 6.37747049331665 163.1440582275391 18.44294166564941 C 161.89306640625 21.88826560974121 161.25830078125 25.51138305664063 161.25830078125 29.21299934387207 C 161.25830078125 46.61003112792969 175.4121246337891 60.76353073120117 192.81005859375 60.76353073120117 C 194.6828460693359 60.76353073120117 196.559326171875 60.59808731079102 198.3874359130859 60.27182388305664 C 201.5005035400391 66.97926330566406 203.8954925537109 74.04188537597656 205.5070953369141 81.26409149169922 C 207.1611480712891 88.68599700927734 208 96.33529663085938 208 103.9994735717773 C 208 118.0380325317383 205.25 131.6582336425781 199.826904296875 144.4818267822266 C 197.2229156494141 150.6396179199219 193.99658203125 156.5832977294922 190.23779296875 162.1477355957031 C 186.5185546875 167.653564453125 182.2456207275391 172.8318481445313 177.5385894775391 177.538818359375 C 172.8310546875 182.246826171875 167.6523590087891 186.5194396972656 162.1464996337891 190.2379455566406 C 156.5908203125 193.9925537109375 150.64697265625 197.2187347412109 144.48193359375 199.8267974853516 C 131.6611480712891 205.2501525878906 118.0410308837891 208 104.0005035400391 208 Z" stroke="none" fill="#fafafa"/>
  </g>
</svg>
